<svg xmlns="http://www.w3.org/2000/svg" width="69.501" height="72.001" viewBox="0 0 69.501 72.001">
  <g id="Groupe_171" data-name="Groupe 171" transform="translate(-260 -355.5)">
    <path id="Intersection_1" data-name="Intersection 1" d="M-816-1133a27.869,27.869,0,0,1,4.353-15h47.295A27.868,27.868,0,0,1-760-1133a28,28,0,0,1-28,28A28,28,0,0,1-816-1133Z" transform="translate(1076 1510)" fill="#fff" opacity="0.426"/>
    <path id="Intersection_1-2" data-name="Intersection 1" d="M-816-1128.814A35.511,35.511,0,0,1-810.4-1148H-749.6a35.511,35.511,0,0,1,5.6,19.187A35.908,35.908,0,0,1-780-1093,35.907,35.907,0,0,1-816-1128.814Z" transform="translate(-818.5 1171.5) rotate(90)" fill="#fff" opacity="0.426"/>
  </g>
</svg>
