<svg xmlns="http://www.w3.org/2000/svg" width="10.01" height="10.012" viewBox="0 0 10.01 10.012">
  <path id="Union_1" data-name="Union 1" d="M2.6,7.012A17.741,17.741,0,0,1,2.491,4.6,23.545,23.545,0,0,1,.129,4.524a3.515,3.515,0,0,1,0-1.888,15.367,15.367,0,0,1,2.359-.112A15.778,15.778,0,0,1,2.6.148a3.062,3.062,0,0,1,1.871,0,18.287,18.287,0,0,1,.08,2.376,15.346,15.346,0,0,1,2.386.113,4.36,4.36,0,0,1,0,1.888,19.537,19.537,0,0,1-2.394.082C4.525,5.883,4.5,6.952,4.466,7.012a2,2,0,0,1-.895.111A2.6,2.6,0,0,1,2.6,7.012Z" transform="matrix(0.719, 0.695, -0.695, 0.719, 4.948, 0)" fill="#fd6885"/>
</svg>
