<svg xmlns="http://www.w3.org/2000/svg" width="26.699" height="26.704" viewBox="0 0 26.699 26.704">
  <path id="Union_1" data-name="Union 1" d="M6.923,18.7a47.32,47.32,0,0,1-.28-6.428,62.8,62.8,0,0,1-6.3-.209c-.426-.269-.492-4.615,0-5.035a40.988,40.988,0,0,1,6.291-.3A42.086,42.086,0,0,1,6.923.394c.428-.626,4.635-.415,4.99,0a48.776,48.776,0,0,1,.213,6.337,40.931,40.931,0,0,1,6.365.3c.393.417.342,4.708,0,5.035a52.111,52.111,0,0,1-6.386.218c-.036,3.406-.108,6.257-.192,6.419a5.343,5.343,0,0,1-2.387.3A6.925,6.925,0,0,1,6.923,18.7Z" transform="matrix(0.719, 0.695, -0.695, 0.719, 13.199, 0)" fill="#0d25b9"/>
</svg>
