<svg xmlns="http://www.w3.org/2000/svg" width="49.622" height="64.163" viewBox="0 0 49.622 64.163">
  <path id="Tracé_116" data-name="Tracé 116" d="M54.187,7.845H45.852V4.6a1.5,1.5,0,0,0-1.5-1.5H17.392a1.5,1.5,0,0,0-1.5,1.5V7.845H7.559a1.5,1.5,0,0,0-1.5,1.5v4.993c0,8.271,5.624,14.971,14.422,17.79a14.972,14.972,0,0,0,5.482,4.319,4.964,4.964,0,0,0,2.409,3.66l-1.785,9.432H23.384a2.5,2.5,0,0,0-2.5,2.5v2.5H17.143a2.5,2.5,0,0,0-2.5,2.5v8.738a1.5,1.5,0,0,0,1.5,1.5H45.6a1.5,1.5,0,0,0,1.5-1.5V57.025a2.5,2.5,0,0,0-2.5-2.5H40.859v-2.5a2.5,2.5,0,0,0-2.5-2.5H35.157L33.37,40.106a4.97,4.97,0,0,0,2.409-3.66,14.952,14.952,0,0,0,5.482-4.319c8.8-2.821,14.422-9.519,14.422-17.79V9.345A1.5,1.5,0,0,0,54.187,7.845ZM9.057,14.335v-3.5h6.838v6.74a25.428,25.428,0,0,0,2.035,10.308C12.372,25.058,9.057,20.217,9.057,14.335Zm43.633,0c0,5.882-3.315,10.722-8.875,13.553a25.394,25.394,0,0,0,2.037-10.308V10.84h6.838Z" transform="translate(-6.061 -3.099)" fill="#fff" fill-rule="evenodd" opacity="0.801"/>
</svg>
