<svg id="Calque_1" data-name="Calque 1" xmlns="http://www.w3.org/2000/svg" xmlns:xlink="http://www.w3.org/1999/xlink" viewBox="0 0 765.88 537.35"><defs><style>.cls-1,.cls-2,.cls-3{opacity:0.74;isolation:isolate;}.cls-1{fill:url(#Dégradé_sans_nom);}.cls-2{fill:#e9e9e9;}.cls-3{fill:#f5f5f5;}</style><linearGradient id="Dégradé_sans_nom" x1="-280.65" y1="642.35" x2="-280.65" y2="641.35" gradientTransform="matrix(51.47, 489.67, 448.83, -47.17, -273396.87, 167969.6)" gradientUnits="userSpaceOnUse"><stop offset="0" stop-color="#fd6585"/><stop offset="1" stop-color="#0d25b9"/></linearGradient></defs><g id="Groupe_167" data-name="Groupe 167"><path id="Tracé_69" data-name="Tracé 69" class="cls-1" d="M429.52,186.5c38.6,27.25,39.85,79.75,11.9,113.28C405.11,348.42,179.72,501.54,144,516.19S59.67,536.91,39.82,469.87s-46-329.75-38.49-366.25,30.86-79.22,92.22-67S382.75,145.91,429.52,186.5Z"/><path id="Tracé_70" data-name="Tracé 70" class="cls-2" d="M360.16,62.52c43.88-13.24,84.77,17.16,93.71,58.56,15.49,56.81-2.07,320.59-12.23,356.68S407.14,554.58,344,529.7,64.43,367.94,41,340.37s-42.14-70.92,3.89-110.5S301.18,74,360.16,62.52Z"/><path id="Tracé_71" data-name="Tracé 71" class="cls-3" d="M754.11,239.89c24,34.57,9,78.9-24.56,98.45C684.32,368,449,427.45,414.6,428.81s-76.85-8.34-73-70.51,62-290,79.4-318.28,50-56.91,97.6-27.94S727.33,191.66,754.11,239.89Z"/></g></svg>