<svg xmlns="http://www.w3.org/2000/svg" width="212.73" height="358.541" viewBox="0 0 212.73 358.541">
  <g id="Groupe_11" data-name="Groupe 11" transform="translate(-72 -245.368)">
    <path id="Tracé_16" data-name="Tracé 16" d="M335.625,149.727c0-6.837-16.239-12.917-41.434-16.789L285.049,93.72a19.2,19.2,0,0,0-18.7-14.843H194.443a19.15,19.15,0,0,0-10.916,3.413v0c-1.991.32-4.5,3.722-6.15,6.992-.02.039-.039.079-.059.118a16.372,16.372,0,0,0-1.636,4.593l-8.416,38.6c-1.083.157-2.153.317-3.2.481-9.33,1.31-36.12,5.786-40.6,14.511-2.424,4.728,3.148,8.631,11.407,11.71,6.416,2.527,15.3,4.761,26.008,6.579a16.4,16.4,0,0,0,13.9,25.123c.111,0,.217-.014.327-.016q.3,2.756.862,5.426c-13.7,5.089-30.078,11.211-49.269,18.444,0,0,24.241,2.5,46.155,30.495l-24.636,10.955c2.711,1.336,5.562,2.829,8.514,4.441-13.9,15.667-26.555,39.115-26.555,72.567V437.395h97.392v.023l1.4-.023h102.3V333.3c0-34.083-13.139-57.777-27.342-73.442,4.936-2.762,7.939-4.161,7.939-4.161L287,244.656c-.131-.1-.262-.19-.393-.285,22.42-27.083,48.759-29.53,48.759-29.53Q306.627,203.96,285.5,196.353q.554-2.646.846-5.38c.111,0,.218.016.33.016a16.413,16.413,0,0,0,13.676-25.495C322,161.617,335.625,155.991,335.625,149.727Z" transform="translate(-50.895 166.491)" fill="#f5f5f5"/>
  </g>
</svg>
