<svg xmlns="http://www.w3.org/2000/svg" width="153.241" height="134.632" viewBox="0 0 153.241 134.632">
  <g id="Groupe_11" data-name="Groupe 11" transform="translate(-72 -245.368)">
    <g id="Groupe_9" data-name="Groupe 9" transform="translate(94.06 293.924)" opacity="0.352">
      <path id="Tracé_16" data-name="Tracé 16" d="M117.76,15.7a.814.814,0,0,0,.112-1.094,3.341,3.341,0,0,0-1.52-.947,17.847,17.847,0,0,0-2.957-.772c-1.2-.225-2.609-.418-4.195-.574l4.893-8.466a2.836,2.836,0,0,0,.423-1.259,1.365,1.365,0,0,0-.3-.955,1.913,1.913,0,0,0-.958-.586A4.739,4.739,0,0,0,111.7.892l-3.178.146-16.164.74a7.836,7.836,0,0,0-.821.083c-.282.043-.573.1-.868.173s-.6.157-.9.255-.609.208-.914.33h0A2.534,2.534,0,0,0,88.3,2.8c-.219.093-.468.215-.732.357s-.541.3-.819.471-.554.346-.816.521l-.009.006-.009.006-.009.006-.009.006c-.139.093-.273.186-.4.276s-.247.178-.358.261-.213.163-.3.237-.168.142-.233.2l-9.558,8.213-.232.032-.231.032-.23.032-.228.033c-.666.089-1.65.23-2.795.419s-2.444.427-3.749.712-2.609.616-3.765.994a12.3,12.3,0,0,0-2.868,1.27,2.391,2.391,0,0,0-.762.72.706.706,0,0,0-.072.638,1.321,1.321,0,0,0,.5.561,4.654,4.654,0,0,0,.94.487,9.473,9.473,0,0,0,.979.358q.553.172,1.229.328t1.467.3q.792.139,1.7.261c-.226.139-.447.283-.662.433s-.422.3-.621.463-.39.322-.57.489-.35.337-.508.511a4.891,4.891,0,0,0-.929,1.379,1.717,1.717,0,0,0-.124,1.118,1.191,1.191,0,0,0,.654.743,3.045,3.045,0,0,0,1.405.252h.022l.022,0,.022,0h.022q-.118.151-.23.3t-.219.3q-.107.149-.208.3t-.2.294l-3.6.928-3.925,1.014-4.248,1.1-4.571,1.187a5.681,5.681,0,0,1,.879.169,7.114,7.114,0,0,1,1.939.832,5.776,5.776,0,0,1,1.951,1.995,7.148,7.148,0,0,1,.89,3.687L45.5,40.494q.158.113.316.232t.318.245q.159.126.32.257t.321.268c-1.7.885-3.485,1.88-5.311,2.994s-3.7,2.349-5.577,3.712-3.773,2.862-5.638,4.5a71.975,71.975,0,0,0-5.5,5.373L1.844,83,27.3,84.4l0,.006.384.015L56.337,86l22.9-26.738a47.848,47.848,0,0,0,4.358-5.868,26.668,26.668,0,0,0,2.436-4.9,15.6,15.6,0,0,0,.925-4,10.573,10.573,0,0,0-.186-3.176c.492-.164.932-.307,1.316-.43s.712-.226.977-.309.47-.145.608-.186l.209-.062L85.1,37.744l-.013-.017-.013-.017-.013-.016-.013-.016A76.36,76.36,0,0,1,93.112,33.9a60.957,60.957,0,0,1,6.262-2.113c1.747-.481,3.126-.763,4.069-.924s1.451-.2,1.451-.2q-1.532-.61-2.956-1.169T99.2,28.431q-1.309-.506-2.515-.964t-2.3-.868q.17-.151.337-.3t.329-.306q.163-.154.322-.308t.315-.31h.089a8.325,8.325,0,0,0,2.048-.326,12.926,12.926,0,0,0,2.164-.828,13.538,13.538,0,0,0,2.021-1.206,9.632,9.632,0,0,0,1.62-1.457,6.056,6.056,0,0,0,.431-.558,4.232,4.232,0,0,0,.309-.528,2.877,2.877,0,0,0,.189-.493,1.962,1.962,0,0,0,.072-.452c1.719-.256,3.322-.534,4.779-.83s2.773-.609,3.909-.935a20.454,20.454,0,0,0,2.845-1.009A4.735,4.735,0,0,0,117.76,15.7Z" fill="#0d25b9"/>
    </g>
    <path id="Tracé_16-2" data-name="Tracé 16" d="M202.776,105.481c0-2.567-6.1-4.85-15.559-6.3l-3.433-14.726a7.21,7.21,0,0,0-7.022-5.574h-27a7.191,7.191,0,0,0-4.1,1.282v0c-.748.12-1.691,1.4-2.309,2.625l-.022.044a6.148,6.148,0,0,0-.614,1.725l-3.16,14.493c-.406.059-.809.119-1.2.181-3.5.492-13.563,2.173-15.244,5.449-.91,1.775,1.182,3.241,4.283,4.4a51.212,51.212,0,0,0,9.766,2.47,6.156,6.156,0,0,0,5.221,9.434c.042,0,.082-.005.123-.006q.111,1.035.324,2.037c-5.145,1.911-11.294,4.21-18.5,6.926,0,0,9.1.939,17.331,11.451l-9.251,4.114c1.018.5,2.088,1.062,3.2,1.668-5.218,5.883-9.971,14.688-9.971,27.249V213.5H162.2v.009l.527-.009h38.412V174.413c0-12.8-4.934-21.7-10.267-27.577,1.853-1.037,2.981-1.562,2.981-1.562l-9.338-4.146-.147-.107c8.419-10.17,18.309-11.088,18.309-11.088q-10.793-4.086-18.727-6.943.208-.994.318-2.02c.042,0,.082.006.124.006a6.163,6.163,0,0,0,5.135-9.573C197.659,109.946,202.776,107.833,202.776,105.481Z" transform="translate(-50.895 166.491)" fill="#f5f5f5"/>
  </g>
</svg>
