<svg id="Calque_1" data-name="Calque 1" xmlns="http://www.w3.org/2000/svg" viewBox="0 0 76.84 69.39"><defs><style>.cls-1{fill:#fff;opacity:0.79;isolation:isolate;}</style></defs><g id="Groupe_de_masques_4" data-name="Groupe de masques 4"><path id="Tracé_54" data-name="Tracé 54" class="cls-1" d="M61.67,53.32c-.13,6.14-5.69,10.09-11.33,9.52C42.46,62.46,9.58,49.31,5.41,46.53S-2.95,39,2.83,31.94,35,3,39.48,1.18,50.25-1.25,53.39,6.24,62.65,45.33,61.67,53.32Z" transform="translate(0.01 0)"/><path id="Tracé_55" data-name="Tracé 55" class="cls-1" d="M75.56,46.23c3,5.33.31,11.58-4.82,14C63.8,64,28.85,69.61,23.83,69.37S12.77,67.19,14.12,58.2,26.8,16.85,29.69,13s8-7.63,14.54-2.82S72.28,38.88,75.56,46.23Z" transform="translate(0.01 0)"/></g></svg>