<svg xmlns="http://www.w3.org/2000/svg" width="64.692" height="63.831" viewBox="0 0 64.692 63.831">
  <g id="Groupe_169" data-name="Groupe 169" transform="translate(-275.197 -167.306)">
    <path id="Tracé_64" data-name="Tracé 64" d="M8.369-.046c5.05-1.011,29.478-.839,35.731,0s7.722,3.2,8.33,8.02.791,33.035,0,37.915-2.478,6.127-7.656,6.562-32.885.853-36.967,0-6.333-.943-7.875-6.562-1.181-31.069,0-37.732S3.319.965,8.369-.046Z" transform="translate(327.528 169.792) rotate(80)" fill="#fff" opacity="0.431"/>
    <path id="Tracé_64-2" data-name="Tracé 64" d="M6.759-.165c4.191-.839,24.462-.7,29.651,0s6.408,2.656,6.912,6.656.656,27.414,0,31.464-2.056,5.085-6.353,5.446-27.289.708-30.677,0-5.255-.783-6.535-5.446-.98-25.783,0-31.312S2.568.675,6.759-.165Z" transform="translate(325.661 168.575) rotate(72)" fill="#fff" opacity="0.431"/>
  </g>
</svg>
