<svg id="Calque_1" data-name="Calque 1" xmlns="http://www.w3.org/2000/svg" xmlns:xlink="http://www.w3.org/1999/xlink" viewBox="0 0 674.67 689.73"><defs><style>.cls-1{fill:url(#Dégradé_sans_nom);}.cls-2{fill:#f5f5f5;}.cls-3{fill:#e9e9e9;}</style><linearGradient id="Dégradé_sans_nom" x1="-324.24" y1="735.26" x2="-323.93" y2="734.31" gradientTransform="matrix(375.08, -431.48, -342.87, -298.05, 373897.21, 79634.47)" gradientUnits="userSpaceOnUse"><stop offset="0" stop-color="#fd6585"/><stop offset="1" stop-color="#0d25b9"/></linearGradient></defs><g id="Groupe_168" data-name="Groupe 168"><path id="Tracé_3" data-name="Tracé 3" class="cls-1" d="M133.43,377.65c4.47,74.11,148.2,244.11,300.32,128.56S631.22,279,631.22,279l22.09,52.33S570.24,532.11,471.27,617,303.76,715.19,188.1,642.47,5.59,465.27,5.59,465.27Z"/><path id="Tracé_4" data-name="Tracé 4" class="cls-2" d="M144.28,192.24c-12.3,73.23,59.2,241.34,229.37,165.88s301-118.7,301-118.7L661.32,264s-65,118.23-207.09,230.63S308,609.73,211.62,512.87,0,248.89,0,248.89Z"/><ellipse id="Ellipse_1" data-name="Ellipse 1" class="cls-3" cx="323.47" cy="192" rx="251.5" ry="192"/></g></svg>