<svg id="Calque_1" data-name="Calque 1" xmlns="http://www.w3.org/2000/svg" xmlns:xlink="http://www.w3.org/1999/xlink" viewBox="0 0 440.87 517.77"><defs><style>.cls-1{fill:#f5f5f5;}.cls-2{fill:url(#Dégradé_sans_nom);}.cls-3{fill:#e9e9e9;}</style><linearGradient id="Dégradé_sans_nom" x1="-476.48" y1="636.87" x2="-476.48" y2="635.87" gradientTransform="matrix(341.43, -54.08, -49.57, -312.95, 194432.69, 173649.42)" gradientUnits="userSpaceOnUse"><stop offset="0" stop-color="#fd6585"/><stop offset="1" stop-color="#0d25b9"/></linearGradient></defs><g id="Groupe_168" data-name="Groupe 168"><path id="Tracé_5" data-name="Tracé 5" class="cls-1" d="M93.53,24.14c17.69-28.06,54.45-30.87,79-12.51C208,35.31,323.59,187.71,335.18,212.25s17.63,58.33-28.65,74.71S77,331.35,51.16,327.4-5.52,308.67.82,265.2,66.79,58.42,93.53,24.14Z" transform="translate(0.02)"/><path id="Tracé_6" data-name="Tracé 6" class="cls-2" d="M147,132.14c17.68-28.06,54.45-30.87,79-12.51C261.37,143.31,377,295.71,388.6,320.25S406.23,378.58,360,395,130.44,439.35,104.58,435.4,47.9,416.67,54.24,373.2,120.2,166.42,147,132.14Z" transform="translate(0.02)"/><path id="Tracé_7" data-name="Tracé 7" class="cls-3" d="M191,214.14c17.68-28.06,54.45-30.87,79-12.51C305.37,225.31,421,377.71,432.6,402.25S450.23,460.58,404,477,174.44,521.35,148.58,517.4,91.9,498.67,98.24,455.2,164.2,248.42,191,214.14Z" transform="translate(0.02)"/></g></svg>