<svg id="Calque_1" data-name="Calque 1" xmlns="http://www.w3.org/2000/svg" xmlns:xlink="http://www.w3.org/1999/xlink" viewBox="0 0 615.37 538.4"><defs><style>.cls-1{fill:#e9e9e9;}.cls-2{fill:#f5f5f5;}.cls-3{fill:url(#Dégradé_sans_nom);}</style><linearGradient id="Dégradé_sans_nom" x1="-369.01" y1="662.58" x2="-368.7" y2="661.63" gradientTransform="matrix(571.71, 0, 0, -454.31, 211206.95, 301102.51)" gradientUnits="userSpaceOnUse"><stop offset="0" stop-color="#fd6585"/><stop offset="1" stop-color="#0d25b9"/></linearGradient></defs><g id="Groupe_169" data-name="Groupe 169"><ellipse id="Ellipse_1" data-name="Ellipse 1" class="cls-1" cx="363.87" cy="192" rx="251.5" ry="192"/><path id="Tracé_4" data-name="Tracé 4" class="cls-2" d="M155.1,108c-43.16,60.44-52.57,242.91,133.49,249.65s322.63,25.24,322.63,25.24l-22.77,16.26s-110.23,77.8-287.26,116.55-181.91,39.37-226.09-90S.56,95.67.56,95.67Z" transform="translate(-0.56 -0.04)"/><path id="Tracé_3" data-name="Tracé 3" class="cls-3" d="M214.93,39c-53,52-87,272,100,311s301,0,301,0l-25,51s-206,69-335,50-184-62-205-197,14-254,14-254Z" transform="translate(-0.56 -0.04)"/></g></svg>