<svg xmlns="http://www.w3.org/2000/svg" width="157.363" height="128.725" viewBox="0 0 157.363 128.725">
  <g id="Groupe_167" data-name="Groupe 167" transform="translate(-53.767 -251.313)">
    <g id="Groupe_17" data-name="Groupe 17" transform="translate(-75.567 53.397)">
      <path id="Tracé_21" data-name="Tracé 21" d="M262.884,546.253c-12.421-1.42-26.162-12.062-58.691-12.757.929-1.959,2.052-5.5,1.634-5.915-.575-.575-7.068-1.812-8.627-1.635-.049-1.774-.237-3.444-.6-3.692-.778-.527-9.14.418-9.918,1.029-.861.676.778,7.335,1.445,7.7.575.311,6.342.251,8.213-.251.006.233.013.461.023.682-2.4-.2-7.289-.049-8.625.82-.307.2-.312,1.263-.161,2.5C173.861,537.7,157,545.106,157,545.106c-29.433.573-21.769,12.78-21.769,12.78,10.693,0,151.266-.034,151.266-.034C288.409,553.838,276.263,547.782,262.884,546.253Z" transform="translate(0 -231.245)" fill="#c18787"/>
      <path id="Tracé_22" data-name="Tracé 22" d="M412.116,405.589c-.111-.389-2.667-1.75-3.223-1.556s-1.083,2.334-1.055,2.834,2.445,1.5,2.861,1.5S412.259,406.088,412.116,405.589Z" transform="translate(-195.203 -147.013)" fill="#c18787"/>
      <path id="Tracé_23" data-name="Tracé 23" d="M402.7,417.915s-3.584-1.973-4.223-1.834-1.972,4.362-1.889,5.112,2.75,1.889,3.584,1.611S403.117,418.721,402.7,417.915Z" transform="translate(-187.177 -155.616)" fill="#c18787"/>
      <path id="Tracé_24" data-name="Tracé 24" d="M393,440.013c-.222-.584-3.667-2.167-4.418-1.834s-2.056,3.973-1.972,4.584,3.528,1.806,4.056,1.611S393.269,440.731,393,440.013Z" transform="translate(-180.056 -171.351)" fill="#c18787"/>
      <path id="Tracé_25" data-name="Tracé 25" d="M383.588,460.033c-.389-.778-5.279-2.473-5.946-2.223s-1.472,5.028-1.222,5.779,3.973,1.611,4.806,1.306S383.829,460.515,383.588,460.033Z" transform="translate(-172.76 -185.369)" fill="#c18787"/>
      <path id="Tracé_26" data-name="Tracé 26" d="M376.039,482.5c-.639-.639-5.461-2.765-6.557-2.306s-1.722,5.973-1.445,7,4.89,1,5.584.722S376.86,483.322,376.039,482.5Z" transform="translate(-166.767 -201.308)" fill="#c18787"/>
      <path id="Tracé_27" data-name="Tracé 27" d="M359.963,507.466c-.917.609-.583,6.475-.472,7.086s5.5,1.528,6.112,1.306,2.96-6.769,2.389-7.168C367.158,508.107,360.879,506.857,359.963,507.466Z" transform="translate(-160.609 -220.691)" fill="#c18787"/>
      <path id="Tracé_28" data-name="Tracé 28" d="M364.191,313.738l3.108,2.147-1.438,0,1.443,1.028c-3.144-.476-7.4.737-13.177,4.99,0,0,3.676.776,4.044.525l-1.372,1.4,3.463-.357-1.015.768,3.447.346-1.231.761,3.376-.125-1,1.046,4.345-.65-.994,1.138s4.453-.615,4.837,1.092c0,0-18.429,2.33-17.224,12.462l3.259-2.218-.7,2.148,3.064-2.74-.521,1.272,2.893-1.969-.84,1.576,2.9-2.715-.242,1.545,2.759-2.811,0,1.774s2.959-3,3.8-3.117l-.059.97s.132-.127.35-.319a2.974,2.974,0,0,0,1.113,1.217,9.467,9.467,0,0,0-1.018,2.061c0,.445,2.139,1.445,2.473,1.334a16.944,16.944,0,0,0,1.5-3.253,3.041,3.041,0,0,0,.446-.271,2.7,2.7,0,0,0,.539.407,3.888,3.888,0,0,1-.351,1.691l1.122-.164-.938,3.485,1.23-.452-.831,3.3.946-.644-.454,2.339,1.089-.121-.674,3.151,1.419-.966-.647,3.825s8.752-4.573,3.762-17.328l1.057.988.751-1.3,2.791,4.1.368-1.233s1.687,3.111,1.651,3.084a6.387,6.387,0,0,1,.4-.826l1.843,2.556.669-.765s1.076,2.216,1.425,2.323l.372-1.253,1.527,2.927.314-1.869,2.19,3.217s1.511-17.212-12.8-16.2l.138-.107a3.39,3.39,0,0,1,3.149-.576l-.692-1.017,3.8.571-.974-1.431,3.536.474-.732-1.076,3.031.31-.883-.719,3.639.142-1.244-1.056,3.8-.292c-11.648-12.142-21.773,2.129-24.135,5.907a2.7,2.7,0,0,0-.345.115c4.462-20.083-14.1-18.915-14.1-18.915l3.182,2.489Z" transform="translate(-156.891 -80.926)" fill="#c18787"/>
      <path id="Tracé_29" data-name="Tracé 29" d="M272.022,333.629c.028-.5-.5-2.64-1.056-2.834s-3.112,1.167-3.223,1.556c-.143.5,1,2.778,1.417,2.778S271.994,334.129,272.022,333.629Z" transform="translate(-95.264 -94.771)" fill="#c18787"/>
      <path id="Tracé_30" data-name="Tracé 30" d="M275.014,349.566c.833.278,3.5-.861,3.584-1.611s-1.25-4.973-1.889-5.112-4.223,1.834-4.223,1.834C272.069,345.482,274.181,349.288,275.014,349.566Z" transform="translate(-98.617 -103.373)" fill="#c18787"/>
      <path id="Tracé_31" data-name="Tracé 31" d="M283.906,371.137c.528.194,3.973-1,4.056-1.611s-1.222-4.251-1.973-4.584-4.2,1.25-4.417,1.834C281.3,367.493,283.378,370.943,283.906,371.137Z" transform="translate(-105.12 -119.109)" fill="#c18787"/>
      <path id="Tracé_32" data-name="Tracé 32" d="M291.3,391.657c.834.305,4.556-.556,4.806-1.306s-.556-5.529-1.222-5.779-5.556,1.445-5.945,2.223C288.7,387.277,290.471,391.351,291.3,391.657Z" transform="translate(-110.379 -133.127)" fill="#c18787"/>
      <path id="Tracé_33" data-name="Tracé 33" d="M296.442,414.681c.695.278,5.307.306,5.584-.722s-.349-6.542-1.445-7-5.917,1.667-6.556,2.306C293.2,410.084,295.748,414.4,296.442,414.681Z" transform="translate(-113.905 -149.066)" fill="#c18787"/>
      <path id="Tracé_34" data-name="Tracé 34" d="M303.186,442.62c.611.222,6-.695,6.112-1.306s.445-6.476-.472-7.086-7.2.64-8.029,1.224C300.227,435.852,302.575,442.4,303.186,442.62Z" transform="translate(-118.787 -168.449)" fill="#c18787"/>
      <path id="Tracé_35" data-name="Tracé 35" d="M308.693,471.064c.778.333,6.474-.306,6.751-1.028s.583-7.363-.361-7.751-8.252.973-8.863,1.584C305.653,464.435,307.915,470.73,308.693,471.064Z" transform="translate(-122.654 -188.529)" fill="#c18787"/>
      <path id="Tracé_36" data-name="Tracé 36" d="M314.608,500.7c.806.195,7.029-.139,7.251-.778s.306-7.2-.25-7.779-8.474.361-9.279,1.25C311.957,493.81,313.8,500.51,314.608,500.7Z" transform="translate(-127.042 -209.751)" fill="#c18787"/>
      <path id="Tracé_37" data-name="Tracé 37" d="M154.81,230.66l4.659-1.8-1.075,1.568,2.186-.808c-2.853,3.084-4.69,8.643-4.337,18.108,0,0,3.582-3.441,3.582-4.029l.5,2.537,2.185-4.05.084,1.681,2.942-3.509-.084,1.912,2.375-3.783.4,1.871,2.522-5.233.5,1.933s2.64-5.324,4.791-4.474c0,0-11.161,21.873.808,28.092v-5.211l1.828,2.361-.716-5.387,1,1.516V249.33l1.1,2.09-.812-5.185,1.509,1.414-1.019-5.106,1.936,1.323s-1.076-5.463-.581-6.472l1.016.786a17.153,17.153,0,0,1-.2-3.6,3.348,3.348,0,0,0,1.909.845,3.123,3.123,0,0,0,.54.96c.334.111,2.473-.889,2.473-1.334a2.465,2.465,0,0,0-.258-.665,3.356,3.356,0,0,0,.757-1.3,5.19,5.19,0,0,1,1.671,1.7l.656-1.348,3.11,3.618.42-1.681,2.988,3.362v-1.513l2.218,2.236.677-1.281,2.942,3.08v-2.269l3.7,3.552s1.513-12.966-16.138-17l1.867-.42-.867-1.79h6.558l-1.074-1.319s4.654.471,4.6.49a8.5,8.5,0,0,1-.6-1.055l4.164-.113-.339-1.3s3.222.471,3.6.17l-1.093-1.338,4.334.509-1.809-1.733h5.145s-17.686-14.457-27.222,1.929c-.008-.146-.013-.226-.013-.226a4.482,4.482,0,0,1,1.714-3.871H186.91l3.449-3.727H188.07l3.149-3.512H189.5l2.594-3.082-1.443.43,2.862-3.87-2.078.573,2.508-4.372c-22.6,3.809-13.355,26.7-11.3,31.209q-.118.06-.23.128c-18.682-19.992-31.259,1.236-31.259,1.236l5.087-1.627Z" transform="translate(-12.108)" fill="#c18787"/>
    </g>
    <g id="Groupe_16" data-name="Groupe 16" transform="translate(-80.567 53.397)">
      <path id="Tracé_21-2" data-name="Tracé 21" d="M262.884,546.253c-12.421-1.42-26.162-12.062-58.691-12.757.929-1.959,2.052-5.5,1.634-5.915-.575-.575-7.068-1.812-8.627-1.635-.049-1.774-.237-3.444-.6-3.692-.778-.527-9.14.418-9.918,1.029-.861.676.778,7.335,1.445,7.7.575.311,6.342.251,8.213-.251.006.233.013.461.023.682-2.4-.2-7.289-.049-8.625.82-.307.2-.312,1.263-.161,2.5C173.861,537.7,157,545.106,157,545.106c-29.433.573-21.769,12.78-21.769,12.78,10.693,0,151.266-.034,151.266-.034C288.409,553.838,276.263,547.782,262.884,546.253Z" transform="translate(0 -231.245)" fill="#f5f5f5"/>
      <path id="Tracé_22-2" data-name="Tracé 22" d="M412.116,405.589c-.111-.389-2.667-1.75-3.223-1.556s-1.083,2.334-1.055,2.834,2.445,1.5,2.861,1.5S412.259,406.088,412.116,405.589Z" transform="translate(-195.203 -147.013)" fill="#f5f5f5"/>
      <path id="Tracé_23-2" data-name="Tracé 23" d="M402.7,417.915s-3.584-1.973-4.223-1.834-1.972,4.362-1.889,5.112,2.75,1.889,3.584,1.611S403.117,418.721,402.7,417.915Z" transform="translate(-187.177 -155.616)" fill="#f5f5f5"/>
      <path id="Tracé_24-2" data-name="Tracé 24" d="M393,440.013c-.222-.584-3.667-2.167-4.418-1.834s-2.056,3.973-1.972,4.584,3.528,1.806,4.056,1.611S393.269,440.731,393,440.013Z" transform="translate(-180.056 -171.351)" fill="#f5f5f5"/>
      <path id="Tracé_25-2" data-name="Tracé 25" d="M383.588,460.033c-.389-.778-5.279-2.473-5.946-2.223s-1.472,5.028-1.222,5.779,3.973,1.611,4.806,1.306S383.829,460.515,383.588,460.033Z" transform="translate(-172.76 -185.369)" fill="#f5f5f5"/>
      <path id="Tracé_26-2" data-name="Tracé 26" d="M376.039,482.5c-.639-.639-5.461-2.765-6.557-2.306s-1.722,5.973-1.445,7,4.89,1,5.584.722S376.86,483.322,376.039,482.5Z" transform="translate(-166.767 -201.308)" fill="#f5f5f5"/>
      <path id="Tracé_27-2" data-name="Tracé 27" d="M359.963,507.466c-.917.609-.583,6.475-.472,7.086s5.5,1.528,6.112,1.306,2.96-6.769,2.389-7.168C367.158,508.107,360.879,506.857,359.963,507.466Z" transform="translate(-160.609 -220.691)" fill="#f5f5f5"/>
      <path id="Tracé_28-2" data-name="Tracé 28" d="M364.191,313.738l3.108,2.147-1.438,0,1.443,1.028c-3.144-.476-7.4.737-13.177,4.99,0,0,3.676.776,4.044.525l-1.372,1.4,3.463-.357-1.015.768,3.447.346-1.231.761,3.376-.125-1,1.046,4.345-.65-.994,1.138s4.453-.615,4.837,1.092c0,0-18.429,2.33-17.224,12.462l3.259-2.218-.7,2.148,3.064-2.74-.521,1.272,2.893-1.969-.84,1.576,2.9-2.715-.242,1.545,2.759-2.811,0,1.774s2.959-3,3.8-3.117l-.059.97s.132-.127.35-.319a2.974,2.974,0,0,0,1.113,1.217,9.467,9.467,0,0,0-1.018,2.061c0,.445,2.139,1.445,2.473,1.334a16.944,16.944,0,0,0,1.5-3.253,3.041,3.041,0,0,0,.446-.271,2.7,2.7,0,0,0,.539.407,3.888,3.888,0,0,1-.351,1.691l1.122-.164-.938,3.485,1.23-.452-.831,3.3.946-.644-.454,2.339,1.089-.121-.674,3.151,1.419-.966-.647,3.825s8.752-4.573,3.762-17.328l1.057.988.751-1.3,2.791,4.1.368-1.233s1.687,3.111,1.651,3.084a6.387,6.387,0,0,1,.4-.826l1.843,2.556.669-.765s1.076,2.216,1.425,2.323l.372-1.253,1.527,2.927.314-1.869,2.19,3.217s1.511-17.212-12.8-16.2l.138-.107a3.39,3.39,0,0,1,3.149-.576l-.692-1.017,3.8.571-.974-1.431,3.536.474-.732-1.076,3.031.31-.883-.719,3.639.142-1.244-1.056,3.8-.292c-11.648-12.142-21.773,2.129-24.135,5.907a2.7,2.7,0,0,0-.345.115c4.462-20.083-14.1-18.915-14.1-18.915l3.182,2.489Z" transform="translate(-156.891 -80.926)" fill="#f5f5f5"/>
      <path id="Tracé_29-2" data-name="Tracé 29" d="M272.022,333.629c.028-.5-.5-2.64-1.056-2.834s-3.112,1.167-3.223,1.556c-.143.5,1,2.778,1.417,2.778S271.994,334.129,272.022,333.629Z" transform="translate(-95.264 -94.771)" fill="#f5f5f5"/>
      <path id="Tracé_30-2" data-name="Tracé 30" d="M275.014,349.566c.833.278,3.5-.861,3.584-1.611s-1.25-4.973-1.889-5.112-4.223,1.834-4.223,1.834C272.069,345.482,274.181,349.288,275.014,349.566Z" transform="translate(-98.617 -103.373)" fill="#f5f5f5"/>
      <path id="Tracé_31-2" data-name="Tracé 31" d="M283.906,371.137c.528.194,3.973-1,4.056-1.611s-1.222-4.251-1.973-4.584-4.2,1.25-4.417,1.834C281.3,367.493,283.378,370.943,283.906,371.137Z" transform="translate(-105.12 -119.109)" fill="#f5f5f5"/>
      <path id="Tracé_32-2" data-name="Tracé 32" d="M291.3,391.657c.834.305,4.556-.556,4.806-1.306s-.556-5.529-1.222-5.779-5.556,1.445-5.945,2.223C288.7,387.277,290.471,391.351,291.3,391.657Z" transform="translate(-110.379 -133.127)" fill="#f5f5f5"/>
      <path id="Tracé_33-2" data-name="Tracé 33" d="M296.442,414.681c.695.278,5.307.306,5.584-.722s-.349-6.542-1.445-7-5.917,1.667-6.556,2.306C293.2,410.084,295.748,414.4,296.442,414.681Z" transform="translate(-113.905 -149.066)" fill="#f5f5f5"/>
      <path id="Tracé_34-2" data-name="Tracé 34" d="M303.186,442.62c.611.222,6-.695,6.112-1.306s.445-6.476-.472-7.086-7.2.64-8.029,1.224C300.227,435.852,302.575,442.4,303.186,442.62Z" transform="translate(-118.787 -168.449)" fill="#f5f5f5"/>
      <path id="Tracé_35-2" data-name="Tracé 35" d="M308.693,471.064c.778.333,6.474-.306,6.751-1.028s.583-7.363-.361-7.751-8.252.973-8.863,1.584C305.653,464.435,307.915,470.73,308.693,471.064Z" transform="translate(-122.654 -188.529)" fill="#f5f5f5"/>
      <path id="Tracé_36-2" data-name="Tracé 36" d="M314.608,500.7c.806.195,7.029-.139,7.251-.778s.306-7.2-.25-7.779-8.474.361-9.279,1.25C311.957,493.81,313.8,500.51,314.608,500.7Z" transform="translate(-127.042 -209.751)" fill="#f5f5f5"/>
      <path id="Tracé_37-2" data-name="Tracé 37" d="M154.81,230.66l4.659-1.8-1.075,1.568,2.186-.808c-2.853,3.084-4.69,8.643-4.337,18.108,0,0,3.582-3.441,3.582-4.029l.5,2.537,2.185-4.05.084,1.681,2.942-3.509-.084,1.912,2.375-3.783.4,1.871,2.522-5.233.5,1.933s2.64-5.324,4.791-4.474c0,0-11.161,21.873.808,28.092v-5.211l1.828,2.361-.716-5.387,1,1.516V249.33l1.1,2.09-.812-5.185,1.509,1.414-1.019-5.106,1.936,1.323s-1.076-5.463-.581-6.472l1.016.786a17.153,17.153,0,0,1-.2-3.6,3.348,3.348,0,0,0,1.909.845,3.123,3.123,0,0,0,.54.96c.334.111,2.473-.889,2.473-1.334a2.465,2.465,0,0,0-.258-.665,3.356,3.356,0,0,0,.757-1.3,5.19,5.19,0,0,1,1.671,1.7l.656-1.348,3.11,3.618.42-1.681,2.988,3.362v-1.513l2.218,2.236.677-1.281,2.942,3.08v-2.269l3.7,3.552s1.513-12.966-16.138-17l1.867-.42-.867-1.79h6.558l-1.074-1.319s4.654.471,4.6.49a8.5,8.5,0,0,1-.6-1.055l4.164-.113-.339-1.3s3.222.471,3.6.17l-1.093-1.338,4.334.509-1.809-1.733h5.145s-17.686-14.457-27.222,1.929c-.008-.146-.013-.226-.013-.226a4.482,4.482,0,0,1,1.714-3.871H186.91l3.449-3.727H188.07l3.149-3.512H189.5l2.594-3.082-1.443.43,2.862-3.87-2.078.573,2.508-4.372c-22.6,3.809-13.355,26.7-11.3,31.209q-.118.06-.23.128c-18.682-19.992-31.259,1.236-31.259,1.236l5.087-1.627Z" transform="translate(-12.108)" fill="#f5f5f5"/>
    </g>
  </g>
</svg>
