<svg xmlns="http://www.w3.org/2000/svg" width="86.691" height="86.033" viewBox="0 0 86.691 86.033">
  <g id="Groupe_170" data-name="Groupe 170" transform="translate(-273.309 -265.327)">
    <path id="Tracé_65" data-name="Tracé 65" d="M24.536,3.26c4.045-4.618,10.846-4.066,14.8,0,5.791,5.353,22.515,36.555,23.922,41.375s1.534,11.171-7.4,12.825-43.232,1.47-47.845,0S-1.8,52.4.613,44.635,18.655,8.751,24.536,3.26Z" transform="matrix(-0.766, 0.643, -0.643, -0.766, 360, 310.243)" fill="#fff" opacity="0.431"/>
    <path id="Tracé_65-2" data-name="Tracé 65" d="M16.232,2.2a6.542,6.542,0,0,1,9.79,0c3.831,3.619,14.9,24.715,15.827,27.974s1.015,7.553-4.9,8.671-28.6.994-31.653,0-6.495-3.424-4.9-8.671S12.342,5.917,16.232,2.2Z" transform="translate(344.347 314.092) rotate(149)" fill="#fff" opacity="0.431"/>
  </g>
</svg>
