<svg xmlns="http://www.w3.org/2000/svg" width="14.372" height="13.721" viewBox="0 0 14.372 13.721">
  <path id="Tracé_38" data-name="Tracé 38" d="M13.177,8a.49.49,0,0,0-.408.245l-2.1,3.732-4.278.97a.49.49,0,0,0-.24.822L9.164,16.83l-.6,4.334a.49.49,0,0,0,.689.516L13.2,19.857l3.941,1.823a.49.49,0,0,0,.689-.516l-.6-4.329,3.017-3.063A.49.49,0,0,0,20,12.95l-4.283-.97L13.626,8.254A.49.49,0,0,0,13.177,8Zm.02,1.491,1.777,3.16a.49.49,0,0,0,.317.24l3.64.817-2.573,2.609a.49.49,0,0,0-.138.408l.516,3.686L13.4,18.877a.491.491,0,0,0-.408,0L9.659,20.414l.505-3.686a.49.49,0,0,0-.133-.408L7.464,13.711l3.63-.817a.49.49,0,0,0,.322-.24Z" transform="translate(-6.011 -8.003)" fill="#f5f5f5"/>
</svg>
