<svg xmlns="http://www.w3.org/2000/svg" xmlns:xlink="http://www.w3.org/1999/xlink" width="19.772" height="19" viewBox="0 0 19.772 19">
  <defs>
    <linearGradient id="linear-gradient" x1="0.223" y1="0.223" x2="0.841" y2="0.833" gradientUnits="objectBoundingBox">
      <stop offset="0" stop-color="#fd6585"/>
      <stop offset="1" stop-color="#0d25b9"/>
    </linearGradient>
  </defs>
  <g id="Groupe_28" data-name="Groupe 28" transform="translate(-322.24 -1326.638)">
    <path id="Union_1" data-name="Union 1" d="M6.923,18.7a47.32,47.32,0,0,1-.28-6.428,62.8,62.8,0,0,1-6.3-.209c-.426-.269-.492-4.615,0-5.035a40.988,40.988,0,0,1,6.291-.3A42.086,42.086,0,0,1,6.923.394c.428-.626,4.635-.415,4.99,0a48.776,48.776,0,0,1,.213,6.337,40.931,40.931,0,0,1,6.365.3c.393.417.342,4.708,0,5.035a52.111,52.111,0,0,1-6.386.218c-.036,3.406-.108,6.257-.192,6.419a5.343,5.343,0,0,1-2.387.3A6.925,6.925,0,0,1,6.923,18.7Z" transform="translate(322.24 1326.638)" fill="#e9e9e9"/>
    <path id="Union_2" data-name="Union 2" d="M6.187,16.735a42.386,42.386,0,0,1-.25-5.751A56.05,56.05,0,0,1,.308,10.8c-.381-.241-.439-4.129,0-4.505A36.588,36.588,0,0,1,5.93,6.023,37.715,37.715,0,0,1,6.187.353c.382-.56,4.143-.371,4.46,0a43.689,43.689,0,0,1,.191,5.67,36.55,36.55,0,0,1,5.688.269c.351.373.306,4.213,0,4.505a46.539,46.539,0,0,1-5.707.2c-.032,3.048-.1,5.6-.172,5.743A4.771,4.771,0,0,1,8.514,17,6.183,6.183,0,0,1,6.187,16.735Z" transform="translate(325.24 1328.638)" fill="url(#linear-gradient)"/>
  </g>
</svg>
