<svg id="Calque_1" data-name="Calque 1" xmlns="http://www.w3.org/2000/svg" xmlns:xlink="http://www.w3.org/1999/xlink" viewBox="0 0 569.36 495.19"><defs><style>.cls-1{fill:url(#Dégradé_sans_nom);}.cls-2{fill:#e9e9e9;}.cls-3{fill:#f5f5f5;}</style><linearGradient id="Dégradé_sans_nom" x1="-340.72" y1="584.12" x2="-340.72" y2="583.12" gradientTransform="matrix(387.98, 303.3, 278, -355.62, -29756.83, 311087.61)" gradientUnits="userSpaceOnUse"><stop offset="0" stop-color="#fd6585"/><stop offset="1" stop-color="#0d25b9"/></linearGradient></defs><g id="Groupe_166" data-name="Groupe 166"><path id="Tracé_8" data-name="Tracé 8" class="cls-1" d="M376.42,5.91c46.43-8.83,85.06,26.76,89.75,70.17,9.75,59.92-36.76,328.46-51.08,364.37s-43.66,75-105.68,42.71S40.22,287.1,19.21,256.3-16.32,179,35.15,143.44,314.71,11.34,376.42,5.91Z"/><path id="Tracé_9" data-name="Tracé 9" class="cls-2" d="M441.17,1.86c45-8.57,82.52,26,87.08,68.07,9.45,58.14-35.67,318.68-49.56,353.52s-42.36,72.79-102.54,41.43S115,274.66,94.61,244.79s-34.48-75,15.45-109.51S381.3,7.12,441.17,1.86Z"/><path id="Tracé_10" data-name="Tracé 10" class="cls-3" d="M488.2,1.21c41.37-7.87,75.79,23.84,80,62.51,8.68,53.4-32.75,292.67-45.51,324.66s-38.9,66.85-94.17,38.05S188.65,251.75,169.93,224.31s-31.66-68.84,14.2-100.57S433.22,6,488.2,1.21Z"/></g></svg>