<svg xmlns="http://www.w3.org/2000/svg" xmlns:xlink="http://www.w3.org/1999/xlink" width="106.836" height="25" viewBox="0 0 106.836 25">
  <defs>
    <linearGradient id="linear-gradient" x1="0.184" y1="0.045" x2="0.846" y2="0.998" gradientUnits="objectBoundingBox">
      <stop offset="0" stop-color="#fd6585"/>
      <stop offset="1" stop-color="#0d25b9"/>
    </linearGradient>
  </defs>
  <g id="Groupe_1" data-name="Groupe 1" transform="translate(-112.164 -32)">
    <text id="La_malle" data-name="La malle" transform="translate(180 51)" font-size="19" font-family="RedHatText-Bold, Red Hat Text" font-weight="700"><tspan x="-38.969" y="0">La malle</tspan></text>
    <g id="Composant_1_6" data-name="Composant 1 – 6" transform="translate(112.164 33)">
      <path id="Tracé_2" data-name="Tracé 2" d="M427.01,337.76l-1.478,6.972a2.688,2.688,0,0,0,2.092,3.174l14.108,2.9a2.688,2.688,0,0,0,3.174-2.092l2.9-14.108a2.688,2.688,0,0,0-2.092-3.174l-14.108-2.9a2.688,2.688,0,0,0-3.174,2.092l-.09.543a1.91,1.91,0,0,0,1.214,2.255l9.137,4.106-9.542-1.157C427.878,336.314,427.3,336.719,427.01,337.76Z" transform="translate(-425.477 -328.476)" fill="url(#linear-gradient)"/>
    </g>
  </g>
</svg>
