<svg xmlns="http://www.w3.org/2000/svg" width="32" height="32" viewBox="0 0 32 32">
  <g id="Groupe_166" data-name="Groupe 166" transform="translate(-296 -30)">
    <g id="Tracé_12" data-name="Tracé 12" transform="translate(296 30)" fill="none">
      <path d="M7,0H25a7,7,0,0,1,7,7V25a7,7,0,0,1-7,7H7a7,7,0,0,1-7-7V7A7,7,0,0,1,7,0Z" stroke="none"/>
      <path d="M 7 1 C 3.69158935546875 1 1 3.69158935546875 1 7 L 1 25 C 1 28.30841064453125 3.69158935546875 31 7 31 L 25 31 C 28.30841064453125 31 31 28.30841064453125 31 25 L 31 7 C 31 3.69158935546875 28.30841064453125 1 25 1 L 7 1 M 7 0 L 25 0 C 28.86598968505859 0 32 3.134010314941406 32 7 L 32 25 C 32 28.86598968505859 28.86598968505859 32 25 32 L 7 32 C 3.134010314941406 32 0 28.86598968505859 0 25 L 0 7 C 0 3.134010314941406 3.134010314941406 0 7 0 Z" stroke="none" fill="#0d25b9"/>
    </g>
    <g id="noun_Settings_1187813" transform="translate(303.893 37.893)">
      <path id="Tracé_118" data-name="Tracé 118" d="M15.96,7.09c-.13-.083-1.153-.694-1.558-.88l-.5-1.216c.149-.4.436-1.529.486-1.725a.542.542,0,0,0-.146-.5l-.793-.788a.538.538,0,0,0-.5-.146c-.149.034-1.3.324-1.725.486L10,1.816C9.827,1.427,9.232.43,9.123.258A.538.538,0,0,0,8.664,0H7.549A.543.543,0,0,0,7.09.253c-.083.13-.694,1.153-.88,1.558l-1.216.5c-.4-.149-1.529-.436-1.725-.486a.542.542,0,0,0-.5.146l-.788.793a.538.538,0,0,0-.146.5c.034.149.324,1.3.486,1.725l-.5,1.216c-.389.177-1.386.772-1.558.88A.538.538,0,0,0,0,7.549V8.663a.543.543,0,0,0,.253.459c.13.083,1.153.694,1.558.88l.5,1.216c-.149.4-.436,1.529-.486,1.725a.542.542,0,0,0,.146.5l.788.788a.538.538,0,0,0,.5.146c.149-.034,1.3-.324,1.725-.486l1.216.5c.177.389.772,1.386.88,1.558a.538.538,0,0,0,.464.259H8.663a.543.543,0,0,0,.459-.253c.083-.13.694-1.153.88-1.558l1.216-.5c.4.149,1.529.436,1.725.486a.542.542,0,0,0,.5-.146l.788-.788a.538.538,0,0,0,.146-.5c-.034-.149-.324-1.3-.486-1.725l.5-1.216c.389-.177,1.386-.772,1.558-.88a.538.538,0,0,0,.259-.464V7.549a.535.535,0,0,0-.253-.459ZM8.107,11.636a3.533,3.533,0,1,1,3.536-3.53A3.533,3.533,0,0,1,8.107,11.636Z" fill="#0d25b9"/>
    </g>
  </g>
</svg>
