<svg id="Calque_1" data-name="Calque 1" xmlns="http://www.w3.org/2000/svg" viewBox="0 0 101.66 90.26"><defs><style>.cls-1{fill:#fff;opacity:0.79;isolation:isolate;}</style></defs><g id="Groupe_de_masques_4" data-name="Groupe de masques 4"><path id="Tracé_54" data-name="Tracé 54" class="cls-1" d="M61.71,53.33c-.13,6.14-5.7,10.09-11.34,9.52C42.49,62.47,9.62,49.32,5.44,46.53S-2.95,39,2.86,32,35.05,3,39.51,1.19,50.28-1.25,53.43,6.25,62.68,45.34,61.71,53.33Z" transform="translate(-0.01 -0.01)"/><path id="Tracé_55" data-name="Tracé 55" class="cls-1" d="M94.37,33.33c6,1.51,8.55,7.82,6.72,13.19-2.14,7.59-22.35,36.66-26,40.1s-9.25,6.44-14.78-.77S39.36,48,38.58,43.22s0-11,8.06-12.42S86.81,30.59,94.37,33.33Z" transform="translate(-0.01 -0.01)"/></g></svg>