<svg xmlns="http://www.w3.org/2000/svg" xmlns:xlink="http://www.w3.org/1999/xlink" width="749.862" height="658.757" viewBox="0 0 749.862 658.757">
  <defs>
    <linearGradient id="linear-gradient" x1="0.5" x2="0.5" y2="1" gradientUnits="objectBoundingBox">
      <stop offset="0" stop-color="#fd6585"/>
      <stop offset="1" stop-color="#0d25b9"/>
    </linearGradient>
  </defs>
  <g id="Groupe_182" data-name="Groupe 182" transform="translate(-1366 -2827.743)">
    <path id="Tracé_8" data-name="Tracé 8" d="M213.524,59.683c31.133-35.544,83.479-31.3,113.9,0,44.573,41.2,173.3,281.362,184.132,318.464s11.8,85.982-56.952,98.715-332.756,11.318-368.264,0-75.565-38.978-56.952-98.715S168.26,101.951,213.524,59.683Z" transform="matrix(0.788, 0.616, -0.616, 0.788, 1645.702, 2785.295)" fill="url(#linear-gradient)"/>
    <path id="Tracé_9" data-name="Tracé 9" d="M207.9,58.936c30.2-34.484,80.991-30.367,110.509,0C361.649,98.91,486.539,331.912,497.049,367.908s11.452,83.42-55.255,95.773-322.838,10.981-357.289,0-73.313-37.816-55.254-95.773S163.98,99.944,207.9,58.936Z" transform="matrix(0.788, 0.616, -0.616, 0.788, 1714.421, 2785.295)" fill="#e9e9e9"/>
    <path id="Tracé_10" data-name="Tracé 10" d="M192.94,56.948c27.739-31.669,74.38-27.888,101.489,0C334.143,93.66,448.839,307.643,458.491,340.7s10.517,76.611-50.744,87.956-296.486,10.084-328.125,0S12.293,393.927,28.877,340.7,152.609,94.609,192.94,56.948Z" transform="matrix(0.788, 0.616, -0.616, 0.788, 1772.018, 2795.424)" fill="#f5f5f5"/>
  </g>
</svg>
